<svg width="161" height="36" viewBox="0 0 161 36" fill="none" xmlns="http://www.w3.org/2000/svg">
<path d="M12.7882 27.0549C12.9878 27.0549 13.1875 26.8879 13.3334 26.592C16.2746 20.7712 17.5878 15.8004 17.5878 10.4805V10.4501C17.68 9.33451 17.4649 7.73322 16.9581 5.79802C16.4436 3.84764 15.3377 2.216 13.6636 0.956225C13.3027 0.68302 13.08 0.546417 12.8496 0.546417C12.6192 0.546417 12.3812 0.675431 11.9895 0.941047C11.1218 1.5254 10.3769 2.27671 9.78555 3.1874C8.51845 5.13019 8.14216 7.30065 7.97321 9.95681C7.8273 12.2259 8.08072 14.662 8.79491 17.6141C9.50909 20.5814 10.6072 23.4956 12.1738 26.5085C12.3505 26.8424 12.5808 27.0473 12.8035 27.0473L12.7882 27.0549Z" fill="#FF9F1C"/>
<path d="M25.4745 9.70636C25.2211 6.80736 24.0769 4.30298 21.6656 2.48161C19.8532 1.11559 17.8028 0.364273 15.4913 0.136602C16.6125 1.40397 17.6108 2.71687 18.1791 4.2878C18.901 6.28371 19.2389 8.37069 19.2926 10.4729C19.3771 13.8424 18.7474 17.1208 17.726 20.3234C17.0426 22.4711 16.2132 24.5581 15.2072 26.5768C15.0997 26.7968 14.7541 27.0093 15.1995 27.3736C15.7371 27.8214 15.1534 29.2177 14.4239 29.2557C13.3565 29.3164 12.2814 29.3012 11.2062 29.2557C10.638 29.2329 9.80091 27.7379 10.2002 27.5026C10.9221 27.0776 10.4613 26.7817 10.2847 26.4326C9.53214 24.9527 8.91778 23.4197 8.35719 21.8716C6.56789 16.9615 5.83067 11.9375 6.7522 6.75423C7.1592 4.45476 8.00394 2.3526 9.73948 0.683012C9.92378 0.500876 10.1542 0.333917 10.2002 0C8.4647 0.182137 6.87507 0.766492 5.34687 1.54816C2.89715 2.79276 1.33823 4.74314 0.554934 7.33859C-0.343555 10.2983 -0.0747759 13.2277 0.816033 16.1267C2.09081 20.2855 4.53286 23.6929 7.81963 26.5312C9.19424 27.7227 9.83163 29.2177 9.88539 30.9936C9.9161 32.0485 9.79323 33.1033 10.0467 34.1506C10.3692 35.4635 10.8146 35.8657 12.1278 35.8809C12.5041 35.8809 12.8727 35.8809 13.249 35.8809C14.9154 35.8657 15.6219 35.2131 15.691 33.5663C15.7294 32.648 15.6603 31.7221 15.714 30.8039C15.7985 29.195 16.3898 27.7607 17.6032 26.6754C19.2619 25.1804 20.7978 23.5943 22.0572 21.7501C24.553 18.0998 25.8815 14.1156 25.4899 9.69119L25.4745 9.70636ZM13.8863 31.7601C13.5177 31.7297 13.1414 31.7601 12.7728 31.7601C12.4042 31.7601 12.0279 31.7373 11.6593 31.7601C11.1218 31.8056 10.9298 31.6083 10.9298 31.0619C10.9298 30.5155 11.1294 30.3409 11.6593 30.3637C12.4042 30.394 13.1491 30.4016 13.894 30.3637C14.4393 30.3333 14.6236 30.5231 14.6236 31.0619C14.6236 31.6083 14.4393 31.8132 13.894 31.7601H13.8863Z" fill="#21A1F2"/>
<path d="M40.422 9.82019H33.3032C32.9936 9.82019 32.7426 10.0665 32.7426 10.3704C32.7426 10.6743 32.9936 10.9206 33.3032 10.9206H40.422C40.7316 10.9206 40.9826 10.6743 40.9826 10.3704C40.9826 10.0665 40.7316 9.82019 40.422 9.82019Z" fill="#1F9CEA"/>
<path d="M33.1539 16.6351H29.7136C29.4633 16.6351 29.2605 16.8356 29.2605 17.0829C29.2605 17.3302 29.4633 17.5306 29.7136 17.5306H33.1539C33.4041 17.5306 33.607 17.3302 33.607 17.0829C33.607 16.8356 33.4041 16.6351 33.1539 16.6351Z" fill="#1F9CEA"/>
<path d="M28.7152 22.7898H25.0138C24.7126 22.7898 24.4685 23.0311 24.4685 23.3286V23.3362C24.4685 23.6338 24.7126 23.8751 25.0138 23.8751H28.7152C29.0164 23.8751 29.2605 23.6338 29.2605 23.3362V23.3286C29.2605 23.0311 29.0164 22.7898 28.7152 22.7898Z" fill="#1F9CEA"/>
<path d="M34.7085 3.24811H30.3005C30.0121 3.24811 29.7784 3.47915 29.7784 3.76416V3.77175C29.7784 4.05676 30.0121 4.2878 30.3005 4.2878H34.7085C34.9969 4.2878 35.2307 4.05676 35.2307 3.77175V3.76416C35.2307 3.47915 34.9969 3.24811 34.7085 3.24811Z" fill="#1F9CEA"/>
<path d="M120.404 24.9965C120.404 23.7519 120.474 22.5073 120.389 21.2703C120.289 19.7904 119.437 18.9329 117.978 18.6445C116.818 18.4092 115.428 18.948 114.845 19.9725C114.415 20.739 114.299 21.6118 114.292 22.4921C114.292 24.4273 114.276 26.3549 114.292 28.2901C114.292 28.8593 114.161 29.1325 113.524 29.1021C112.595 29.0566 111.658 29.0794 110.728 29.0946C110.298 29.0946 110.022 29.0263 110.03 28.5026C110.053 25.8844 109.815 23.2282 110.129 20.648C110.521 17.4909 112.717 14.9714 116.734 14.6982C118.131 14.5995 119.506 14.6906 120.811 15.3281C123.637 16.7169 124.713 19.1453 124.851 22.0595C124.951 24.1237 124.859 26.1956 124.882 28.2674C124.882 28.8138 124.797 29.1249 124.129 29.0946C123.108 29.049 122.079 29.0642 121.057 29.0946C120.573 29.1097 120.404 28.9276 120.412 28.4571C120.435 27.3111 120.42 26.1576 120.42 25.0041H120.389L120.404 24.9965Z" fill="#FF851F"/>
<path d="M89.1417 19.1074C89.1417 22.0975 89.1417 25.0876 89.1417 28.0776C89.1417 29.0642 89.1263 29.0718 88.1741 29.087C87.2449 29.1022 86.308 29.0794 85.3788 29.087C84.9257 29.087 84.6646 28.9504 84.7107 28.4571C84.726 28.2749 84.7107 28.0928 84.7107 27.9031C84.7107 22.014 84.7107 16.1249 84.7107 10.2282C84.7107 8.97606 84.7184 8.97606 86.0239 8.96088C86.7227 8.96088 87.4215 8.9457 88.1203 8.96088C89.111 8.98364 89.1263 8.99123 89.134 9.97022C89.1417 13.0058 89.134 16.0414 89.134 19.0846L89.1417 19.1074Z" fill="#FF851F"/>
<path d="M142.836 9.83363C142.836 8.86224 142.813 8.85465 141.822 8.83188C141.031 8.8167 140.24 8.8167 139.449 8.83188C138.489 8.85465 138.474 8.86982 138.466 9.87158C138.451 11.8523 138.466 13.8255 138.466 15.9428C135.026 13.4005 131.186 14.6451 129.182 16.9977C127.761 18.6748 127.37 20.6404 127.516 22.7881C127.738 26.0514 130.296 28.3584 133.045 28.8897C134.32 29.1401 135.602 29.1629 136.915 28.9352C140.164 28.3812 142.49 25.8541 142.698 22.7957C142.79 21.3689 142.844 19.9498 142.844 18.5231C142.844 15.6241 142.844 12.725 142.844 9.82604L142.836 9.83363ZM135.249 25.0648C133.037 25.0496 131.624 23.7595 131.755 21.7256C131.908 19.4337 133.145 18.5762 135.118 18.4851C137.199 18.3865 138.451 19.6842 138.451 21.8091C138.451 23.8885 137.215 25.2242 135.249 25.0648Z" fill="#FF851F"/>
<path d="M65.8501 14.6982C65.1052 14.7285 64.3603 14.7058 63.6154 14.7058C62.2408 14.7058 62.2254 14.7058 61.7416 15.9807C60.6588 18.819 59.5914 21.6573 58.5163 24.5032C57.4412 21.6573 56.3737 18.8114 55.291 15.9807C54.7995 14.6982 54.7841 14.7058 53.4172 14.7058C52.6723 14.7058 51.9274 14.7285 51.1825 14.6982C50.5374 14.6678 50.499 14.9486 50.7064 15.4419C51.505 17.3392 52.296 19.244 53.087 21.1489C54.0853 23.5622 55.099 25.9679 56.0589 28.3964C56.2662 28.9124 57.0572 29.087 57.0572 29.087H59.9754C59.9754 29.087 60.774 28.9124 60.9737 28.3964C61.9336 25.9679 62.9473 23.5622 63.9456 21.1489C64.7366 19.244 65.5276 17.3392 66.3262 15.4419C66.5336 14.9486 66.4952 14.6678 65.8501 14.6982Z" fill="#FF851F"/>
<path d="M81.9384 20.1016C81.1551 16.6258 78.2139 14.4629 74.4817 14.554C70.6421 14.554 67.9773 16.4664 66.9406 20.0333C66.1803 22.6591 67.386 26.1804 69.4671 27.554C71.5021 28.8973 73.637 29.3222 76.0714 28.9656C80.3872 28.3433 82.8983 24.3059 81.9384 20.094V20.1016ZM74.4203 25.2242C72.5235 25.2242 70.9799 23.6988 70.9799 21.8243C70.9799 19.9498 72.5235 18.4244 74.4203 18.4244C76.3171 18.4244 77.8607 19.9498 77.8607 21.8243C77.8607 23.6988 76.3171 25.2242 74.4203 25.2242Z" fill="#FF851F"/>
<path d="M160.644 20.1016C159.861 16.6258 156.92 14.4629 153.188 14.554C149.348 14.554 146.683 16.4664 145.647 20.0333C144.886 22.6591 146.092 26.1804 148.173 27.554C150.208 28.8973 152.343 29.3222 154.777 28.9656C159.093 28.3433 161.604 24.3059 160.644 20.094V20.1016ZM153.126 25.2242C151.229 25.2242 149.686 23.6988 149.686 21.8243C149.686 19.9498 151.229 18.4244 153.126 18.4244C155.023 18.4244 156.567 19.9498 156.567 21.8243C156.567 23.6988 155.023 25.2242 153.126 25.2242Z" fill="#FF851F"/>
<path d="M108.11 28.366C107.733 27.5312 107.534 26.6509 107.365 25.7402C107.073 24.23 107.25 22.7122 107.104 21.2096C106.835 18.5382 105.698 16.4133 103.11 15.2066C101.897 14.6375 100.645 14.4629 99.3246 14.4705C97.5737 14.4857 96.1146 14.9107 94.9243 15.6999C94.9243 15.6999 94.9243 15.6999 94.9166 15.6999C94.4405 16.0187 94.0104 16.3981 93.6265 16.8307C93.5113 16.9597 93.4114 17.0963 93.3039 17.2329C93.2348 17.3316 93.1503 17.4151 93.0812 17.5137C92.6051 18.1815 92.2442 18.9329 92.0138 19.7373C92.0061 19.7601 91.9907 19.7828 91.9831 19.8056C91.9754 19.836 91.9677 19.8739 91.9524 19.9043C91.9524 19.927 91.937 19.9498 91.937 19.9726C91.7757 20.5341 91.7066 21.0957 91.722 21.6497C91.722 21.6877 91.722 21.7256 91.722 21.7712C91.722 23.7215 92.4899 25.4822 93.734 26.8103C93.7954 26.8786 93.8722 26.9469 93.9413 27.0152C94.0795 27.1518 94.2178 27.2808 94.3637 27.4022C94.4174 27.4477 94.4712 27.4857 94.5249 27.5312C94.6632 27.6375 94.9396 27.8272 94.9396 27.8272C95.5002 28.1991 96.1223 28.5026 96.8211 28.7303C99.1095 29.4512 101.221 29.1553 102.88 27.1973C103.264 26.742 103.379 27.1821 103.487 27.4857C103.825 28.4166 104.472 28.8821 105.43 28.8821C105.66 28.8821 105.898 28.8821 106.128 28.8821C106.689 28.8821 107.25 28.8821 107.803 28.8821C108.187 28.8821 108.286 28.7151 108.125 28.366H108.11ZM99.409 25.1407C98.9022 25.1407 98.4261 25.0268 97.996 24.8371C97.4124 24.6322 96.9593 24.2528 96.6445 23.7595C96.2144 23.1903 95.9533 22.4921 95.9533 21.7256C95.9533 19.836 97.5045 18.3106 99.409 18.3106C101.314 18.3106 102.865 19.8435 102.865 21.7256C102.865 23.6077 101.314 25.1407 99.409 25.1407Z" fill="#FF851F"/>
</svg>
